<svg width="21" height="17" viewBox="0 0 21 17" xmlns="http://www.w3.org/2000/svg">
  <path fill="white"   d="M20.49 2.431c-.746.333-1.375.344-2.041.015.86-.515.9-.877 1.21-1.85a8.344 8.344 0 0 1-2.646 1.011 4.166 4.166 0 0 0-7.098 3.8A11.822 11.822 0 0 1 1.33 1.054 4.165 4.165 0 0 0 2.62 6.615a4.15 4.15 0 0 1-1.886-.52v.052a4.168 4.168 0 0 0 3.342 4.085 4.194 4.194 0 0 1-1.882.072 4.172 4.172 0 0 0 3.891 2.892 8.376 8.376 0 0 1-6.167 1.725 11.793 11.793 0 0 0 6.385 1.87c7.662 0 11.85-6.346 11.85-11.85 0-.182-.002-.361-.01-.54.813-.587 1.79-1.134 2.348-1.97z" fill-rule="evenodd"></path>
</svg>